<svg width="125" height="125" viewBox="0 0 125 125" fill="none" xmlns="http://www.w3.org/2000/svg">
<path d="M124.839 20.023C124.821 19.4848 124.663 18.9603 124.38 18.501C124.097 18.0417 123.698 17.6634 123.222 17.4034C122.747 17.1433 122.211 17.0104 121.668 17.0177C121.126 17.025 120.594 17.1723 120.126 17.4451C115.886 19.8979 109.287 23.064 103.452 23.064C100.796 23.064 98.0956 22.6636 95.3197 21.8251C93.5737 21.3093 91.8696 20.663 90.2222 19.8916C81.781 15.8933 74.0275 8.83516 66.9048 1.81459C65.7299 0.666129 64.1509 0.0154759 62.5013 0C60.8517 0.0154759 59.2727 0.666129 58.0978 1.81459C50.9751 8.83516 43.2216 15.8933 34.7804 19.8916C33.1356 20.664 31.4272 21.3103 29.6829 21.8251C26.907 22.6636 24.2006 23.064 21.5509 23.064C15.7152 23.064 9.11622 19.8916 4.8767 17.4451C4.40859 17.1723 3.87698 17.025 3.33411 17.0177C2.79125 17.0104 2.2558 17.1433 1.78039 17.4034C1.30499 17.6634 0.905986 18.0417 0.622592 18.501C0.339199 18.9603 0.181168 19.4848 0.164029 20.023C-0.220807 29.6466 -0.321748 50.3079 4.50448 66.6016C13.3305 96.4046 32.7679 116.509 60.7159 124.743L61.5991 125L62.4824 124.912H62.5013L63.4035 125L64.2867 124.743C92.2347 116.509 111.672 96.4046 120.498 66.6016C125.324 50.3079 125.217 29.6466 124.839 20.023Z" fill="#7678ED"/>
<path d="M94.1705 63.0368L65.3737 31.0135C64.161 29.6622 61.8317 29.6622 60.619 31.0135L31.8223 63.0368C31.4078 63.4966 31.1357 64.0671 31.0391 64.6788C30.9426 65.2905 31.0257 65.9171 31.2783 66.4824C31.7903 67.6385 32.9357 68.3814 34.1996 68.3814H40.5989V90.7977C40.5989 91.647 40.936 92.4615 41.536 93.0621C42.1361 93.6626 42.9499 94 43.7985 94H53.3974C54.246 94 55.0599 93.6626 55.6599 93.0621C56.26 92.4615 56.5971 91.647 56.5971 90.7977V77.9884H69.3957V90.7977C69.3957 91.647 69.7328 92.4615 70.3328 93.0621C70.9329 93.6626 71.7467 94 72.5953 94H82.1942C83.0428 94 83.8567 93.6626 84.4567 93.0621C85.0568 92.4615 85.3939 91.647 85.3939 90.7977V68.3814H91.7932C92.4128 68.3841 93.0199 68.2062 93.5403 67.8695C94.0607 67.5328 94.472 67.0519 94.724 66.4853C94.976 65.9187 95.0579 65.291 94.9596 64.6787C94.8613 64.0663 94.5871 63.4958 94.1705 63.0368Z" fill="white"/>
</svg>
