<svg width="49" height="50" viewBox="0 0 49 50" fill="none" xmlns="http://www.w3.org/2000/svg">
<path d="M48.9204 7.97096C48.9137 7.75671 48.8518 7.5479 48.7407 7.36506C48.6297 7.18222 48.4733 7.03163 48.287 6.92811C48.1007 6.82458 47.8909 6.77167 47.6782 6.77458C47.4655 6.77749 47.2571 6.83612 47.0737 6.9447C45.4124 7.92114 42.8264 9.18155 40.5396 9.18155C39.4988 9.18155 38.4407 9.02214 37.3529 8.68835C36.6687 8.48303 36.0009 8.22573 35.3553 7.91865C32.0475 6.32695 29.0091 3.51719 26.218 0.722369C25.7575 0.265179 25.1388 0.00616079 24.4924 0C23.8459 0.00616079 23.2272 0.265179 22.7668 0.722369C19.9756 3.51719 16.9372 6.32695 13.6294 7.91865C12.9848 8.22612 12.3154 8.48343 11.6318 8.68835C10.5441 9.02214 9.48347 9.18155 8.44513 9.18155C6.15832 9.18155 3.57237 7.91865 1.91103 6.9447C1.72759 6.83612 1.51927 6.77749 1.30654 6.77458C1.0938 6.77167 0.883979 6.82458 0.697683 6.92811C0.511386 7.03163 0.355028 7.18222 0.243975 7.36506C0.132922 7.5479 0.0709942 7.75671 0.0642782 7.97096C-0.0865277 11.802 -0.126083 20.027 1.76517 26.5134C5.22382 38.3777 12.8408 46.381 23.7927 49.6591L24.1388 49.7612L24.4849 49.7264H24.4924L24.8459 49.7612L25.192 49.6591C36.144 46.381 43.7609 38.3777 47.2196 26.5134C49.1108 20.027 49.0688 11.802 48.9204 7.97096Z" fill="white"/>
<path d="M30.2883 18.4283C31.5124 18.4283 32.5048 17.436 32.5048 16.2119C32.5048 14.9877 31.5124 13.9954 30.2883 13.9954C29.0641 13.9954 28.0718 14.9877 28.0718 16.2119C28.0718 17.436 29.0641 18.4283 30.2883 18.4283Z" fill="#EF6060"/>
<path d="M28.9329 23.9353C29.1873 24.3144 29.5522 24.606 29.9781 24.7706C30.404 24.9351 30.8702 24.9646 31.3134 24.8551L34.9883 23.9364L34.453 21.7864L30.7781 22.7051L29.2498 20.4144C28.9233 19.9252 28.4166 19.5849 27.8401 19.4679L23.5778 18.6146C23.101 18.5189 22.6059 18.5828 22.1691 18.7966C21.7322 19.0103 21.3779 19.3619 21.1608 19.7971L19.3233 23.472L21.3059 24.4639L23.1434 20.7878L25.3233 21.2245L19.6868 30.6191H14.7728V32.8356H19.6868C20.4603 32.8356 21.1885 32.4233 21.5874 31.7595L23.713 28.2175L29.4416 29.3635L31.4541 35.4023L33.5554 34.7008L31.5439 28.663C31.4198 28.2924 31.2001 27.9609 30.9071 27.7022C30.6141 27.4434 30.2581 27.2664 29.8749 27.1891L26.5069 26.5164L28.4707 23.2426L28.9329 23.9353Z" fill="#EF6060"/>
</svg>
