<svg width="49" height="49" viewBox="0 0 49 49" fill="none" xmlns="http://www.w3.org/2000/svg">
<path d="M48.9167 7.84582C48.91 7.63493 48.8481 7.4294 48.7371 7.24943C48.626 7.06946 48.4697 6.92124 48.2834 6.81934C48.0971 6.71743 47.8873 6.66536 47.6746 6.66822C47.4619 6.67109 47.2536 6.72879 47.0701 6.83567C45.4089 7.79679 42.8232 9.03741 40.5365 9.03741C39.4958 9.03741 38.4378 8.88049 37.3501 8.55195C36.6659 8.34985 35.9982 8.09659 35.3527 7.79433C32.0451 6.22762 29.0069 3.46197 26.216 0.711028C25.7556 0.261016 25.1369 0.00606406 24.4905 0C23.8441 0.00606406 23.2254 0.261016 22.765 0.711028C19.9741 3.46197 16.936 6.22762 13.6284 7.79433C12.9838 8.09697 12.3144 8.35025 11.631 8.55195C10.5433 8.88049 9.48275 9.03741 8.44449 9.03741C6.15785 9.03741 3.5721 7.79433 1.91089 6.83567C1.72746 6.72879 1.51916 6.67109 1.30644 6.66822C1.09372 6.66536 0.883912 6.71743 0.69763 6.81934C0.511347 6.92124 0.355001 7.06946 0.243957 7.24943C0.132912 7.4294 0.0709888 7.63493 0.0642733 7.84582C-0.0865212 11.6167 -0.126074 19.7126 1.76504 26.0972C5.22342 37.7752 12.8398 45.6529 23.7909 48.8795L24.137 48.98L24.4831 48.9457H24.4905L24.844 48.98L25.1901 48.8795C36.1412 45.6529 43.7576 37.7752 47.216 26.0972C49.1071 19.7126 49.0651 11.6167 48.9167 7.84582Z" fill="white"/>
<path d="M24.49 16.0715C15.3411 16.0715 12.5916 23.8787 12.5664 23.9577L12.4393 24.3306L12.5652 24.7034C12.5916 24.7825 15.3411 32.5896 24.49 32.5896C33.6388 32.5896 36.3884 24.7825 36.4135 24.7034L36.5406 24.3306L36.4147 23.9577C36.3884 23.8787 33.6388 16.0715 24.49 16.0715ZM24.49 29.05C21.8459 29.05 19.6956 26.9334 19.6956 24.3306C19.6956 21.7278 21.8459 19.6111 24.49 19.6111C27.1341 19.6111 29.2843 21.7278 29.2843 24.3306C29.2843 26.9334 27.1341 29.05 24.49 29.05Z" fill="#EAAD65"/>
<path d="M24.49 21.9708C23.1907 21.9708 22.0928 23.0516 22.0928 24.3306C22.0928 25.6095 23.1907 26.6903 24.49 26.6903C25.7892 26.6903 26.8871 25.6095 26.8871 24.3306C26.8871 23.0516 25.7892 21.9708 24.49 21.9708Z" fill="#EAAD65"/>
</svg>
